<svg width="1365" height="615" viewBox="0 0 1365 615" fill="none" xmlns="http://www.w3.org/2000/svg">
<g opacity="0.2">
<path d="M320.735 614.149C442.915 552.692 477.683 515.077 511.812 428.454C525.113 428.285 529.552 428.308 542.9 428.455L495.131 614.149L320.735 614.149Z" fill="#EBB76E"/>
<rect x="191.077" width="272.966" height="54.5933" fill="#EBB76E"/>
<path d="M0 573.229H504.988L495.736 614.174H0V573.229Z" fill="#EBB76E"/>
<rect x="504.988" width="259.318" height="54.5933" fill="#EBB76E"/>
<rect x="791.603" width="259.318" height="54.5933" fill="#EBB76E"/>
<path d="M859.844 54.5933H955.383V547.485L923.863 591.489L907.614 614.174H859.844V54.5933Z" fill="#EBB76E"/>
<path d="M573.23 54.5933H668.768V547.485L637.248 591.489L620.999 614.174H573.23V54.5933Z" fill="#EBB76E"/>
<rect x="1173.76" width="191.076" height="54.5933" fill="#EBB76E"/>
<rect x="900.789" y="548.559" width="638.741" height="43.839" transform="rotate(-54.6936 900.789 548.559)" fill="#EBB76E"/>
<rect x="614.174" y="548.559" width="490.278" height="43.839" transform="rotate(-54.6936 614.174 548.559)" fill="#EBB76E"/>
<rect x="93.1393" y="573.389" width="595.646" height="87.035" transform="rotate(-70.353 93.1393 573.389)" fill="#EBB76E"/>
<path fill-rule="evenodd" clip-rule="evenodd" d="M450.395 13.6483H204.725V40.945H295.389L100.413 586.878H13.6482V600.526L95.5382 600.526H163.78L477.691 600.526L491.34 600.526L532.285 436.746H518.636C494.91 504.447 465.817 540.313 391.142 586.878H168.654L363.63 40.945H450.395V13.6483Z" fill="#1D1D1D"/>
<path fill-rule="evenodd" clip-rule="evenodd" d="M750.658 13.6483H518.636V40.945H586.878V532.284H645.304L603.507 591.834L615.085 599.961L912.966 175.558L901.388 167.431L655.119 518.299V40.945H750.658V13.6483ZM1351.18 13.6483H1187.4V40.945H1351.18V13.6483Z" fill="#1D1D1D"/>
<path d="M586.878 532.285H655.119L614.174 600.526H586.878V532.285Z" fill="black"/>
<path fill-rule="evenodd" clip-rule="evenodd" d="M805.251 13.6483H1037.27V40.945H941.734V514.233L1285.14 24.9625L1300.57 35.7911L904.067 600.708L888.639 589.879L929.064 532.284H873.492V40.945H805.251V13.6483Z" fill="#1D1D1D"/>
<path d="M873.492 532.285H952.13L904.095 600.526H873.492V532.285Z" fill="black"/>
</g>
</svg>
